<svg width="374" height="260" viewBox="0 0 374 260" fill="none" xmlns="http://www.w3.org/2000/svg">
<rect width="374" height="260" fill="white"/>
<rect x="72" y="15" width="230" height="230" rx="25" fill="url(#paint0_linear)"/>
<path d="M140.433 84.2332L284.023 84.2332V81.7141L140.433 81.7141V84.2332Z" fill="#EBEBF7"/>
<path d="M140.433 102.119L284.023 102.119V99.5998L140.433 99.5998V102.119Z" fill="#EBEBF7"/>
<path d="M284.275 121.516H89.2949V118.997H284.275V121.516Z" fill="#EBEBF7"/>
<path d="M89.2949 140.41H284.275V137.89H89.2949V140.41Z" fill="#EBEBF7"/>
<path d="M232.885 159.303H89.2949V156.784H232.885V159.303Z" fill="#EBEBF7"/>
<path d="M89.2949 178.196H232.885V175.677H89.2949V178.196Z" fill="#EBEBF7"/>
<path d="M107.662 80.9606C99.7657 82.7702 92.955 88.1332 92.955 96.1612C92.955 101.787 96.3439 105.538 101.345 105.538C106.609 105.538 109.867 101.327 109.867 96.0296C106.214 95.9309 103.78 93.9897 103.78 90.8311C103.78 87.9357 106.116 86.0932 108.945 85.4023L107.662 80.9606ZM126.844 80.9606C118.947 82.7702 112.17 88.1332 112.17 96.1612C112.17 101.787 115.526 105.538 120.527 105.538C125.824 105.538 129.048 101.327 129.048 96.0296C125.396 95.9309 122.961 93.9897 122.961 90.8311C122.961 87.9357 125.297 86.0932 128.127 85.4023L126.844 80.9606Z" fill="#30DB5B"/>
<path d="M248.764 174.562C256.66 172.752 263.438 167.422 263.438 159.394C263.438 153.768 260.082 149.984 255.081 149.984C249.784 149.984 246.559 154.196 246.559 159.493C250.178 159.625 252.646 161.566 252.646 164.724C252.646 167.587 250.277 169.429 247.447 170.153L248.764 174.562ZM267.781 174.562C275.677 172.752 282.455 167.422 282.455 159.394C282.455 153.768 279.099 149.984 274.098 149.984C268.801 149.984 265.576 154.196 265.576 159.493C269.196 159.625 271.663 161.566 271.663 164.724C271.663 167.587 269.294 169.429 266.465 170.153L267.781 174.562Z" fill="#30DB5B"/>
<defs>
<linearGradient id="paint0_linear" x1="187" y1="15" x2="187" y2="245" gradientUnits="userSpaceOnUse">
<stop stop-color="#444446"/>
<stop offset="1" stop-color="#242426"/>
</linearGradient>
</defs>
</svg>
