<svg width="374" height="260" viewBox="0 0 374 260" fill="none" xmlns="http://www.w3.org/2000/svg">
<rect width="374" height="260" fill="white"/>
<rect x="72" y="15" width="230" height="230" rx="25" fill="#003399"/>
<path d="M144.4 58.432L144.106 58.6455L144.219 58.991L147.72 69.7666L138.554 63.1069L138.26 62.8934L137.966 63.1069L128.8 69.7666L132.301 58.991L132.413 58.6455L132.119 58.432L122.953 51.7723H134.283H134.646L134.759 51.4268L138.26 40.6512L141.761 51.4268L141.873 51.7723H142.236H153.567L144.4 58.432ZM138.26 64.1295L141.622 66.5723L138.541 64.48L138.259 64.2885L137.977 64.481L134.509 66.8548L138.26 64.1295Z" fill="#FFCC00" stroke="black"/>
<path d="M242.063 207.382L241.769 207.596L241.881 207.941L245.383 218.717L236.216 212.057L235.922 211.844L235.628 212.057L226.462 218.717L229.963 207.941L230.076 207.596L229.782 207.382L220.616 200.723H231.946H232.309L232.421 200.377L235.922 189.602L239.424 200.377L239.536 200.723H239.899H251.229L242.063 207.382ZM235.922 213.08L239.285 215.523L236.203 213.43L235.921 213.239L235.64 213.431L232.171 215.805L235.922 213.08Z" fill="#FFCC00" stroke="black"/>
<path d="M112.955 90.5511L112.661 90.7647L112.773 91.1102L116.275 101.886L107.108 95.2261L106.814 95.0126L106.521 95.2261L97.3543 101.886L100.855 91.1102L100.968 90.7647L100.674 90.5511L91.5076 83.8915H102.838H103.201L103.313 83.546L106.814 72.7704L110.316 83.546L110.428 83.8915H110.791H122.121L112.955 90.5511ZM106.814 96.2486L110.177 98.6914L107.095 96.5991L106.813 96.4076L106.532 96.6001L103.063 98.974L106.814 96.2486Z" fill="#FFCC00" stroke="black"/>
<path d="M273.447 175.203L273.153 175.417L273.265 175.762L276.767 186.538L267.6 179.878L267.306 179.665L267.013 179.878L257.846 186.538L261.347 175.762L261.46 175.417L261.166 175.203L252 168.544H263.33H263.693L263.805 168.198L267.306 157.423L270.808 168.198L270.92 168.544H271.283H282.613L273.447 175.203ZM267.306 180.901L270.669 183.344L267.587 181.251L267.305 181.06L267.024 181.252L263.555 183.626L267.306 180.901Z" fill="#FFCC00" stroke="black"/>
<path d="M102.848 133.452L102.554 133.665L102.666 134.011L106.167 144.786L97.0009 138.126L96.707 137.913L96.4131 138.126L87.2469 144.786L90.7481 134.011L90.8603 133.665L90.5664 133.452L81.4002 126.792H92.7303H93.0936L93.2058 126.446L96.707 115.671L100.208 126.446L100.32 126.792H100.684H112.014L102.848 133.452ZM96.707 139.149L100.069 141.592L96.9879 139.5L96.7059 139.308L96.4247 139.501L92.9559 141.874L96.707 139.149Z" fill="#FFCC00" stroke="black"/>
<path d="M283.473 132.284L283.179 132.497L283.291 132.843L286.792 143.618L277.626 136.959L277.332 136.745L277.038 136.959L267.872 143.618L271.373 132.843L271.485 132.497L271.192 132.284L262.025 125.624H273.355H273.719L273.831 125.279L277.332 114.503L280.833 125.279L280.946 125.624H281.309H292.639L283.473 132.284ZM277.332 137.981L280.694 140.424L277.613 138.332L277.331 138.14L277.05 138.333L273.581 140.707L277.332 137.981Z" fill="#FFCC00" stroke="black"/>
<path d="M112.955 176.801L112.661 177.015L112.773 177.36L116.275 188.136L107.108 181.476L106.814 181.263L106.521 181.476L97.3543 188.136L100.855 177.36L100.968 177.015L100.674 176.801L91.5076 170.141H102.838H103.201L103.313 169.796L106.814 159.02L110.316 169.796L110.428 170.141H110.791H122.121L112.955 176.801ZM106.814 182.499L110.177 184.941L107.095 182.849L106.813 182.658L106.532 182.85L103.063 185.224L106.814 182.499Z" fill="#FFCC00" stroke="black"/>
<path d="M273.283 88.9536L272.989 89.1671L273.101 89.5126L276.602 100.288L267.436 93.6285L267.142 93.415L266.848 93.6285L257.682 100.288L261.183 89.5126L261.295 89.1671L261.002 88.9536L251.835 82.2939H263.165H263.529L263.641 81.9484L267.142 71.1728L270.643 81.9484L270.756 82.2939H271.119H282.449L273.283 88.9536ZM267.142 94.6511L270.504 97.0939L267.423 95.0016L267.141 94.8101L266.86 95.0026L263.391 97.3764L267.142 94.6511Z" fill="#FFCC00" stroke="black"/>
<path d="M193.141 43.3832L192.847 43.5967L192.959 43.9422L196.46 54.7178L187.294 48.0581L187 47.8446L186.706 48.0581L177.54 54.7178L181.041 43.9422L181.153 43.5967L180.859 43.3832L171.693 36.7235H183.023H183.387L183.499 36.378L187 25.6024L190.501 36.378L190.613 36.7235H190.977H202.307L193.141 43.3832ZM187 49.0806L190.362 51.5235L187.281 49.4311L186.999 49.2397L186.718 49.4322L183.249 51.806L187 49.0806Z" fill="#FFCC00" stroke="black"/>
<path d="M193.351 222.524L193.058 222.738L193.17 223.083L196.671 233.859L187.505 227.199L187.211 226.985L186.917 227.199L177.751 233.859L181.252 223.083L181.364 222.738L181.07 222.524L171.904 215.864H183.234H183.597L183.71 215.519L187.211 204.743L190.712 215.519L190.824 215.864H191.188H202.518L193.351 222.524ZM187.211 228.222L190.573 230.664L187.492 228.572L187.21 228.381L186.929 228.573L183.46 230.947L187.211 228.222Z" fill="#FFCC00" stroke="black"/>
<path d="M144.4 208.92L144.106 209.134L144.219 209.479L147.72 220.255L138.554 213.595L138.26 213.382L137.966 213.595L128.8 220.255L132.301 209.479L132.413 209.134L132.119 208.92L122.953 202.261H134.283H134.646L134.759 201.915L138.26 191.14L141.761 201.915L141.873 202.261H142.236H153.567L144.4 208.92ZM138.26 214.618L141.622 217.061L138.541 214.968L138.259 214.777L137.977 214.969L134.509 217.343L138.26 214.618Z" fill="#FFCC00" stroke="black"/>
<path d="M241.776 56.8944L241.482 57.1079L241.595 57.4534L245.096 68.229L235.93 61.5694L235.636 61.3558L235.342 61.5694L226.176 68.229L229.677 57.4534L229.789 57.1079L229.495 56.8944L220.329 50.2347H231.659H232.022L232.134 49.8892L235.636 39.1137L239.137 49.8892L239.249 50.2347H239.612H250.943L241.776 56.8944ZM235.636 62.5919L238.998 65.0347L235.917 62.9424L235.635 62.7509L235.353 62.9434L231.885 65.3172L235.636 62.5919Z" fill="#FFCC00" stroke="black"/>
</svg>
